<?xml version="1.0" standalone="no"?>
<!DOCTYPE svg PUBLIC "-//W3C//DTD SVG 20010904//EN"
 "http://www.w3.org/TR/2001/REC-SVG-20010904/DTD/svg10.dtd">
<svg version="1.0" xmlns="http://www.w3.org/2000/svg"
 width="122.000000pt" height="122.000000pt" viewBox="0 0 122.000000 122.000000"
 preserveAspectRatio="xMidYMid meet">
<metadata>
Created by potrace 1.14, written by Peter Selinger 2001-2017
</metadata>
<g transform="translate(0.000000,122.000000) scale(0.100000,-0.100000)"
fill="#000000" stroke="none">
<path d="M493 1145 c-206 -45 -374 -215 -418 -422 -20 -93 -19 -156 5 -247 27
-107 63 -169 145 -252 76 -77 155 -122 260 -149 335 -85 675 186 675 538 0
141 -59 278 -164 382 -83 82 -145 118 -252 145 -88 23 -162 24 -251 5z m187
-75 c193 -30 355 -190 391 -385 33 -176 -56 -372 -212 -471 -37 -23 -139 -64
-160 -64 -4 0 -9 59 -11 131 -3 129 -3 131 -31 155 -34 29 -56 30 -91 3 -26
-20 -26 -21 -26 -156 l0 -135 -32 6 c-120 24 -256 133 -313 250 -149 306 58
649 405 675 8 0 44 -4 80 -9z"/>
<path d="M561 934 c-43 -36 -43 -82 0 -118 35 -30 49 -32 88 -11 31 15 41 33
41 70 0 37 -10 55 -41 70 -39 21 -53 19 -88 -11z"/>
<path d="M350 817 c-32 -16 -52 -59 -44 -91 22 -91 158 -75 158 19 0 60 -62
99 -114 72z"/>
<path d="M804 816 c-34 -15 -44 -33 -44 -76 0 -72 88 -102 136 -46 30 34 30
68 2 100 -30 32 -56 38 -94 22z"/>
<path d="M575 688 c-41 -23 -56 -68 -39 -113 8 -19 55 -45 84 -45 31 0 70 44
70 79 0 43 -9 60 -41 76 -33 18 -47 18 -74 3z"/>
<path d="M775 545 c-51 -50 -15 -135 58 -135 45 0 77 34 77 82 0 70 -86 103
-135 53z"/>
<path d="M337 548 c-40 -31 -41 -96 -2 -128 26 -22 82 -18 107 8 28 27 29 83
3 112 -21 23 -81 27 -108 8z"/>
</g>
</svg>
